  0
SECTION
  2
HEADER
  9
$ACADVER
  1
AC1009
  9
$INSBASE
 10
0.0
 20
0.0
 30
0.0
  9
$EXTMIN
 10
0.0
 20
0.0
 30
0.0
  9
$EXTMAX
 10
0.0
 20
0.0
 30
0.0
  0
ENDSEC
  0
SECTION
  2
TABLES
  0
TABLE
  2
VPORT
 70
0
  0
ENDTAB
  0
TABLE
  2
LTYPE
 70
1
  0
LTYPE
  2
CONTINUOUS
 70
0
  3
Solid line
 72
65
 73
0
 40
0.0
  0
ENDTAB
  0
TABLE
  2
LAYER
 70
1
  0
LAYER
  2
0
 70
64
 62
7
  6
continuous
  0
ENDTAB
  0
TABLE
  2
STYLE
 70
1
  0
STYLE
  2
STANDARD
 70
0
 40
0
 41
1.0
 50
0.0
 71
0
 42
1
 3
ARIAL.TTF
 4

  0
ENDTAB
  0
TABLE
  2
VIEW
 70
0
  0
ENDTAB
  0
ENDSEC
  0
SECTION
  2
BLOCKS
  0
BLOCK
  8
0
  2
BODY
 70
0
 10
0.0
 20
0.0
 30
0.0
  3
BODY
  0
LINE
  8
0
 62
0
 10
-18.5224301541
 20
14.7499370653
 30
0.0
 11
-18.5224301541
 21
-0.750062934717
 31
0.0
  0
LINE
  8
0
 62
0
 10
-13.5224301541
 20
14.7499370653
 30
0.0
 11
-18.5224301541
 21
14.7499370653
 31
0.0
  0
LINE
  8
0
 62
0
 10
-18.5224301541
 20
-0.750062934717
 30
0.0
 11
-13.5224301541
 21
-0.750062934717
 31
0.0
  0
LINE
  8
0
 62
0
 10
-8.52243015407
 20
11.7499370653
 30
0.0
 11
-13.5224301541
 21
14.7499370653
 31
0.0
  0
LINE
  8
0
 62
0
 10
-13.5224301541
 20
-0.750062934717
 30
0.0
 11
-10.0224301541
 21
-8.25006293472
 31
0.0
  0
LINE
  8
0
 62
0
 10
8.47756984593
 20
11.7499370653
 30
0.0
 11
-8.52243015407
 21
11.7499370653
 31
0.0
  0
LINE
  8
0
 62
0
 10
-10.0224301541
 20
-8.25006293472
 30
0.0
 11
9.97756984593
 21
-8.25006293472
 31
0.0
  0
LINE
  8
0
 62
0
 10
13.4775698459
 20
14.7499370653
 30
0.0
 11
8.47756984593
 21
11.7499370653
 31
0.0
  0
LINE
  8
0
 62
0
 10
9.97756984593
 20
-8.25006293472
 30
0.0
 11
13.4775698459
 21
-0.750062934717
 31
0.0
  0
LINE
  8
0
 62
0
 10
18.4775698459
 20
14.7499370653
 30
0.0
 11
13.4775698459
 21
14.7499370653
 31
0.0
  0
LINE
  8
0
 62
0
 10
13.4775698459
 20
-0.750062934717
 30
0.0
 11
18.4775698459
 21
-0.750062934717
 31
0.0
  0
LINE
  8
0
 62
0
 10
18.4775698459
 20
-0.750062934717
 30
0.0
 11
18.4775698459
 21
14.7499370653
 31
0.0
  0
CIRCLE
  8
0
 62
0
 10
13.9775698459
 20
4.74993706528
 30
0.0
 40
1.25
  0
CIRCLE
  8
0
 62
0
 10
-14.0224301541
 20
4.74993706528
 30
0.0
 40
1.25
  0
CIRCLE
  8
0
 62
0
 10
-14.0224301541
 20
11.7499370653
 30
0.0
 40
1.25
  0
CIRCLE
  8
0
 62
0
 10
13.9775698459
 20
11.7499370653
 30
0.0
 40
1.25
  0
ARC
  8
0
 62
0
 10
-0.022430154071
 20
1.74993706528
 30
0.0
 40
5.6
 50
-103.067302389
 51
-0.0
  0
ARC
  8
0
 62
0
 10
-0.022430154071
 20
1.74993706528
 30
0.0
 40
5.6
 50
-111.250476994
 51
-103.067302389
  0
ARC
  8
0
 62
0
 10
-0.022430154071
 20
1.74993706528
 30
0.0
 40
5.6
 50
-134.73466284
 51
-111.250476994
  0
ARC
  8
0
 62
0
 10
-0.022430154071
 20
1.74993706528
 30
0.0
 40
5.6
 50
-159.280198135
 51
-134.73466284
  0
ARC
  8
0
 62
0
 10
-0.022430154071
 20
1.74993706528
 30
0.0
 40
5.6
 50
-164.031702891
 51
-159.280198135
  0
ARC
  8
0
 62
0
 10
-0.022430154071
 20
1.74993706528
 30
0.0
 40
5.6
 50
74.5623780201
 51
-164.031702891
  0
ARC
  8
0
 62
0
 10
-0.022430154071
 20
1.74993706528
 30
0.0
 40
5.6
 50
69.2801981352
 51
74.5623780201
  0
ARC
  8
0
 62
0
 10
-0.022430154071
 20
1.74993706528
 30
0.0
 40
5.6
 50
21.2504769941
 51
69.2801981352
  0
ARC
  8
0
 62
0
 10
-0.022430154071
 20
1.74993706528
 30
0.0
 40
5.6
 50
13.5979775181
 51
21.2504769941
  0
ARC
  8
0
 62
0
 10
-0.022430154071
 20
1.74993706528
 30
0.0
 40
5.6
 50
-0.0
 51
13.5979775181
  0
POLYLINE
  8
0
 62
0
 70
0
 66
1
 10
0.0
 20
0.0
 30
0.0
  0
VERTEX
  8
0
 10
-3.96384790542
 20
-2.22815621006
 30
0.0
  0
VERTEX
  8
0
 10
-4.71844329916
 20
-1.3008760298
 30
0.0
  0
SEQEND
  8
0
  0
POLYLINE
  8
0
 62
0
 70
0
 66
1
 10
0.0
 20
0.0
 30
0.0
  0
VERTEX
  8
0
 10
-2.92274396975
 20
-3.0404887791
 30
0.0
  0
VERTEX
  8
0
 10
-3.96384790542
 20
-2.22815621006
 30
0.0
  0
SEQEND
  8
0
  0
LINE
  8
0
 62
0
 10
-1.28856462371
 20
-3.70505179857
 30
0.0
 11
5.42059792731
 21
3.0665407662
 31
0.0
  0
LINE
  8
0
 62
0
 10
5.19679701663
 20
3.77963353042
 30
0.0
 11
-2.0521266192
 21
-3.46929010542
 31
0.0
  0
LINE
  8
0
 62
0
 10
-5.26023229748
 20
-0.231332403129
 30
0.0
 11
1.95883931434
 21
6.9877392087
 31
0.0
  0
LINE
  8
0
 62
0
 10
1.95883931434
 20
6.9877392087
 30
0.0
 11
5.19679701663
 21
3.77963353042
 31
0.0
  0
LINE
  8
0
 62
0
 10
-5.40634891467
 20
0.209346665716
 30
0.0
 11
1.46822887129
 21
7.14789368516
 31
0.0
  0
ENDBLK
  0
ENDSEC
  0
SECTION
  2
ENTITIES
  0
INSERT
  2
BODY
  8
0
 62
0
 10
0.0
 20
0.0
 30
0.0
  0
ENDSEC
  0
EOF
