  0
SECTION
  2
HEADER
  9
$ACADVER
  1
AC1009
  9
$INSBASE
 10
0.0
 20
0.0
 30
0.0
  9
$EXTMIN
 10
0.0
 20
0.0
 30
0.0
  9
$EXTMAX
 10
0.0
 20
0.0
 30
0.0
  0
ENDSEC
  0
SECTION
  2
TABLES
  0
TABLE
  2
VPORT
 70
0
  0
ENDTAB
  0
TABLE
  2
LTYPE
 70
1
  0
LTYPE
  2
CONTINUOUS
 70
0
  3
Solid line
 72
65
 73
0
 40
0.0
  0
ENDTAB
  0
TABLE
  2
LAYER
 70
1
  0
LAYER
  2
0
 70
64
 62
7
  6
continuous
  0
ENDTAB
  0
TABLE
  2
STYLE
 70
1
  0
STYLE
  2
STANDARD
 70
0
 40
0
 41
1.0
 50
0.0
 71
0
 42
1
 3
ARIAL.TTF
 4

  0
ENDTAB
  0
TABLE
  2
VIEW
 70
0
  0
ENDTAB
  0
ENDSEC
  0
SECTION
  2
BLOCKS
  0
BLOCK
  8
0
  2
BODY
 70
0
 10
0.0
 20
0.0
 30
0.0
  3
BODY
  0
LINE
  8
0
 62
0
 10
-6.62039232582
 20
-3.24979378687
 30
0.0
 11
-10.6203923258
 21
-3.24979378687
 31
0.0
  0
ARC
  8
0
 62
0
 10
-6.62039232582
 20
-1.24979378687
 30
0.0
 40
2.0
 50
-90.0
 51
-0.0
  0
ARC
  8
0
 62
0
 10
-10.5693372298
 20
-6.24935931829
 30
0.0
 40
3.0
 50
90.9751275825
 51
-89.8672378778
  0
LINE
  8
0
 62
0
 10
-4.62039232582
 20
1.25020621313
 30
0.0
 11
-4.62039232582
 21
-1.24979378687
 31
0.0
  0
LINE
  8
0
 62
0
 10
-10.5623858275
 20
-9.24935126462
 30
0.0
 11
10.4376141725
 21
-9.24935126462
 31
0.0
  0
ARC
  8
0
 62
0
 10
-6.62039232582
 20
1.25020621313
 30
0.0
 40
2.0
 50
-0.0
 51
90.0
  0
ARC
  8
0
 62
0
 10
10.5
 20
-6.25
 30
0.0
 40
3.0
 50
-91.1915674314
 51
90.0002256063
  0
LINE
  8
0
 62
0
 10
-10.5
 20
3.25020621313
 30
0.0
 11
-6.62039232582
 21
3.25020621313
 31
0.0
  0
LINE
  8
0
 62
0
 10
10.4999881873
 20
-3.24999999999
 30
0.0
 11
6.64952259907
 21
-3.25001516154
 31
0.0
  0
ARC
  8
0
 62
0
 10
-10.5
 20
6.25020621313
 30
0.0
 40
3.0
 50
89.3162286908
 51
-90.0
  0
ARC
  8
0
 62
0
 10
6.64951472392
 20
-1.25001516154
 30
0.0
 40
2.0
 50
180.0
 51
-89.9997743937
  0
LINE
  8
0
 62
0
 10
-10.4641986678
 20
9.24999258296
 30
0.0
 11
10.5358013322
 21
9.24999258296
 31
0.0
  0
LINE
  8
0
 62
0
 10
4.64951472392
 20
-1.25001516154
 30
0.0
 11
4.64951472392
 21
1.25000000001
 31
0.0
  0
ARC
  8
0
 62
0
 10
10.5291303356
 20
6.25
 30
0.0
 40
3.0
 50
-90.000151595
 51
89.8725932447
  0
ARC
  8
0
 62
0
 10
6.64951472392
 20
1.25000000001
 30
0.0
 40
2.0
 50
90.0
 51
180.0
  0
LINE
  8
0
 62
0
 10
6.64951472392
 20
3.25000000001
 30
0.0
 11
10.5291223981
 21
3.25000000001
 31
0.0
  0
CIRCLE
  8
0
 62
0
 10
10.5291303356
 20
6.25
 30
0.0
 40
1.25
  0
CIRCLE
  8
0
 62
0
 10
10.5
 20
-6.25
 30
0.0
 40
1.25
  0
CIRCLE
  8
0
 62
0
 10
-10.497487
 20
6.251243
 30
0.0
 40
1.25
  0
CIRCLE
  8
0
 62
0
 10
-10.5693372298
 20
-6.24935931829
 30
0.0
 40
1.25
  0
LINE
  8
0
 62
0
 10
-1.5
 20
0.00186012972073
 30
0.0
 11
-1.5
 21
4.51389173538
 31
0.0
  0
POLYLINE
  8
0
 62
0
 70
0
 66
1
 10
0.0
 20
0.0
 30
0.0
  0
VERTEX
  8
0
 10
-1.5
 20
-9.23610826462
 30
0.0
  0
VERTEX
  8
0
 10
-1.5
 20
-6.35837259426
 30
0.0
  0
VERTEX
  8
0
 10
-1.5
 20
0.00186012972073
 30
0.0
  0
SEQEND
  8
0
  0
POLYLINE
  8
0
 62
0
 70
0
 66
1
 10
0.0
 20
0.0
 30
0.0
  0
VERTEX
  8
0
 10
1.5
 20
-9.23610826462
 30
0.0
  0
VERTEX
  8
0
 10
1.5
 20
-6.35837259426
 30
0.0
  0
VERTEX
  8
0
 10
1.5
 20
0.00186012972073
 30
0.0
  0
SEQEND
  8
0
  0
LINE
  8
0
 62
0
 10
1.5
 20
4.51389173538
 30
0.0
 11
1.5
 21
0.00186012972073
 31
0.0
  0
LINE
  8
0
 62
0
 10
-1.5
 20
4.51389173538
 30
0.0
 11
1.5
 21
4.51389173538
 31
0.0
  0
LINE
  8
0
 62
0
 10
-1.5
 20
0.00186012972073
 30
0.0
 11
1.5
 21
0.00186012972073
 31
0.0
  0
LINE
  8
0
 62
0
 10
1.5
 20
-9.23610826462
 30
0.0
 11
-1.5
 21
-9.23610826462
 31
0.0
  0
ENDBLK
  0
ENDSEC
  0
SECTION
  2
ENTITIES
  0
INSERT
  2
BODY
  8
0
 62
0
 10
0.0
 20
0.0
 30
0.0
  0
ENDSEC
  0
EOF
