  0
SECTION
  2
HEADER
  9
$ACADVER
  1
AC1009
  9
$INSBASE
 10
0.0
 20
0.0
 30
0.0
  9
$EXTMIN
 10
0.0
 20
0.0
 30
0.0
  9
$EXTMAX
 10
0.0
 20
0.0
 30
0.0
  0
ENDSEC
  0
SECTION
  2
TABLES
  0
TABLE
  2
VPORT
 70
0
  0
ENDTAB
  0
TABLE
  2
LTYPE
 70
1
  0
LTYPE
  2
CONTINUOUS
 70
0
  3
Solid line
 72
65
 73
0
 40
0.0
  0
ENDTAB
  0
TABLE
  2
LAYER
 70
1
  0
LAYER
  2
0
 70
64
 62
7
  6
continuous
  0
ENDTAB
  0
TABLE
  2
STYLE
 70
1
  0
STYLE
  2
STANDARD
 70
0
 40
0
 41
1.0
 50
0.0
 71
0
 42
1
 3
ARIAL.TTF
 4

  0
ENDTAB
  0
TABLE
  2
VIEW
 70
0
  0
ENDTAB
  0
ENDSEC
  0
SECTION
  2
BLOCKS
  0
BLOCK
  8
0
  2
BODY
 70
0
 10
0.0
 20
0.0
 30
0.0
  3
BODY
  0
ARC
  8
0
 62
0
 10
-0.0238829241791
 20
0.0
 30
0.0
 40
5.5
 50
-15.8266201319
 51
15.8266201319
  0
POLYLINE
  8
0
 62
0
 70
0
 66
1
 10
0.0
 20
0.0
 30
0.0
  0
VERTEX
  8
0
 10
5.47391735819
 20
-0.155538042984
 30
0.0
  0
VERTEX
  8
0
 10
5.46836215099
 20
-0.291965750537
 30
0.0
  0
SEQEND
  8
0
  0
POLYLINE
  8
0
 62
0
 70
0
 66
1
 10
0.0
 20
0.0
 30
0.0
  0
VERTEX
  8
0
 10
5.46004147813
 20
-0.42020612337
 30
0.0
  0
VERTEX
  8
0
 10
5.45030304024
 20
-0.532248078677
 30
0.0
  0
SEQEND
  8
0
  0
POLYLINE
  8
0
 62
0
 70
0
 66
1
 10
0.0
 20
0.0
 30
0.0
  0
VERTEX
  8
0
 10
5.43464514804
 20
-0.67414484854
 30
0.0
  0
VERTEX
  8
0
 10
5.42414235058
 20
-0.754334529357
 30
0.0
  0
SEQEND
  8
0
  0
POLYLINE
  8
0
 62
0
 70
0
 66
1
 10
0.0
 20
0.0
 30
0.0
  0
VERTEX
  8
0
 10
5.39994568179
 20
-0.912185967888
 30
0.0
  0
VERTEX
  8
0
 10
5.39629556101
 20
-0.93363011344
 30
0.0
  0
SEQEND
  8
0
  0
POLYLINE
  8
0
 62
0
 70
0
 66
1
 10
0.0
 20
0.0
 30
0.0
  0
VERTEX
  8
0
 10
5.38534696003
 20
-0.995104081639
 30
0.0
  0
VERTEX
  8
0
 10
5.37013851467
 20
-1.07449184173
 30
0.0
  0
SEQEND
  8
0
  0
POLYLINE
  8
0
 62
0
 70
0
 66
1
 10
0.0
 20
0.0
 30
0.0
  0
VERTEX
  8
0
 10
5.36429335287
 20
-1.10342939393
 30
0.0
  0
VERTEX
  8
0
 10
5.36359721514
 20
-1.10682327617
 30
0.0
  0
SEQEND
  8
0
  0
POLYLINE
  8
0
 62
0
 70
0
 66
1
 10
0.0
 20
0.0
 30
0.0
  0
VERTEX
  8
0
 10
5.3470178661
 20
-1.18466228714
 30
0.0
  0
VERTEX
  8
0
 10
5.34529386248
 20
-1.1924515356
 30
0.0
  0
SEQEND
  8
0
  0
POLYLINE
  8
0
 62
0
 70
0
 66
1
 10
0.0
 20
0.0
 30
0.0
  0
VERTEX
  8
0
 10
5.33218839723
 20
-1.25
 30
0.0
  0
VERTEX
  8
0
 10
5.46564924603
 20
-0.339170387035
 30
0.0
  0
SEQEND
  8
0
  0
POLYLINE
  8
0
 62
0
 70
0
 66
1
 10
0.0
 20
0.0
 30
0.0
  0
VERTEX
  8
0
 10
5.46565142432
 20
-0.339135129113
 30
0.0
  0
VERTEX
  8
0
 10
5.46625612273
 20
-0.329200903499
 30
0.0
  0
SEQEND
  8
0
  0
POLYLINE
  8
0
 62
0
 70
0
 66
1
 10
0.0
 20
0.0
 30
0.0
  0
VERTEX
  8
0
 10
5.46684384802
 20
-0.319248326253
 30
0.0
  0
VERTEX
  8
0
 10
5.47611707582
 20
1.84e-15
 30
0.0
  0
SEQEND
  8
0
  0
POLYLINE
  8
0
 62
0
 70
0
 66
1
 10
0.0
 20
0.0
 30
0.0
  0
VERTEX
  8
0
 10
5.47391732625
 20
-0.155539172067
 30
0.0
  0
VERTEX
  8
0
 10
5.46836215883
 20
-0.29196560305
 30
0.0
  0
SEQEND
  8
0
  0
POLYLINE
  8
0
 62
0
 70
0
 66
1
 10
0.0
 20
0.0
 30
0.0
  0
VERTEX
  8
0
 10
5.46004142117
 20
-0.420206866841
 30
0.0
  0
VERTEX
  8
0
 10
5.41828529428
 20
-0.795490468349
 30
0.0
  0
SEQEND
  8
0
  0
POLYLINE
  8
0
 62
0
 70
0
 66
1
 10
0.0
 20
0.0
 30
0.0
  0
VERTEX
  8
0
 10
5.38927087035
 20
-0.973532803554
 30
0.0
  0
VERTEX
  8
0
 10
5.34529367651
 20
-1.19245237295
 30
0.0
  0
SEQEND
  8
0
  0
POLYLINE
  8
0
 62
0
 70
0
 66
1
 10
0.0
 20
0.0
 30
0.0
  0
VERTEX
  8
0
 10
5.33218839723
 20
-1.25
 30
0.0
  0
VERTEX
  8
0
 10
5.47611707582
 20
8.6e-16
 30
0.0
  0
SEQEND
  8
0
  0
LINE
  8
0
 62
0
 10
5.26761969795
 20
1.5
 30
0.0
 11
19.0493807689
 21
1.5
 31
0.0
  0
POLYLINE
  8
0
 62
0
 70
0
 66
1
 10
0.0
 20
0.0
 30
0.0
  0
VERTEX
  8
0
 10
23.1622776602
 20
1.5
 30
0.0
  0
VERTEX
  8
0
 10
19.0493807689
 20
1.5
 30
0.0
  0
SEQEND
  8
0
  0
LINE
  8
0
 62
0
 10
19.0493807689
 20
4.5
 30
0.0
 11
19.0493807689
 21
1.5
 31
0.0
  0
LINE
  8
0
 62
0
 10
19.0493807689
 20
4.5
 30
0.0
 11
3.16227766017
 21
4.5
 31
0.0
  0
ARC
  8
0
 62
0
 10
0.0
 20
0.0
 30
0.0
 40
5.5
 50
54.9031987724
 51
136.658241773
  0
LINE
  8
0
 62
0
 10
-7.5
 20
3.77491721764
 30
0.0
 11
-4.0
 21
3.77491721764
 31
0.0
  0
LINE
  8
0
 62
0
 10
-7.5
 20
-3.77491721764
 30
0.0
 11
-7.5
 21
3.77491721764
 31
0.0
  0
LINE
  8
0
 62
0
 10
-4.0
 20
-3.77491721764
 30
0.0
 11
-7.5
 21
-3.77491721764
 31
0.0
  0
ARC
  8
0
 62
0
 10
0.0
 20
0.0
 30
0.0
 40
5.5
 50
-136.658241773
 51
-54.9031987724
  0
LINE
  8
0
 62
0
 10
19.0493807689
 20
-4.5
 30
0.0
 11
3.16227766017
 21
-4.5
 31
0.0
  0
LINE
  8
0
 62
0
 10
19.0493807689
 20
-1.5
 30
0.0
 11
19.0493807689
 21
-4.5
 31
0.0
  0
LINE
  8
0
 62
0
 10
5.26761969795
 20
-1.5
 30
0.0
 11
19.0493807689
 21
-1.5
 31
0.0
  0
CIRCLE
  8
0
 62
0
 10
0.0
 20
2e-15
 30
0.0
 40
2.48
  0
POLYLINE
  8
0
 62
0
 70
0
 66
1
 10
0.0
 20
0.0
 30
0.0
  0
VERTEX
  8
0
 10
23.1622776602
 20
-1.5
 30
0.0
  0
VERTEX
  8
0
 10
19.0493807689
 20
-1.5
 30
0.0
  0
SEQEND
  8
0
  0
POLYLINE
  8
0
 62
0
 70
0
 66
1
 10
0.0
 20
0.0
 30
0.0
  0
VERTEX
  8
0
 10
2.48
 20
3.71e-15
 30
0.0
  0
VERTEX
  8
0
 10
2.37409898967
 20
-0.716975634176
 30
0.0
  0
SEQEND
  8
0
  0
POLYLINE
  8
0
 62
0
 70
0
 66
1
 10
0.0
 20
0.0
 30
0.0
  0
VERTEX
  8
0
 10
2.36620369631
 20
-0.742617040344
 30
0.0
  0
VERTEX
  8
0
 10
2.34195456424
 20
-0.81587303345
 30
0.0
  0
SEQEND
  8
0
  0
POLYLINE
  8
0
 62
0
 70
0
 66
1
 10
0.0
 20
0.0
 30
0.0
  0
VERTEX
  8
0
 10
2.30078733703
 20
-0.925622833654
 30
0.0
  0
VERTEX
  8
0
 10
2.26626160456
 20
-1.007203225
 30
0.0
  0
SEQEND
  8
0
  0
POLYLINE
  8
0
 62
0
 70
0
 66
1
 10
0.0
 20
0.0
 30
0.0
  0
VERTEX
  8
0
 10
2.25789319399
 20
-1.02582567941
 30
0.0
  0
VERTEX
  8
0
 10
2.15772421044
 20
-1.22254903329
 30
0.0
  0
SEQEND
  8
0
  0
POLYLINE
  8
0
 62
0
 70
0
 66
1
 10
0.0
 20
0.0
 30
0.0
  0
VERTEX
  8
0
 10
2.14951024947
 20
-1.2369340193
 30
0.0
  0
VERTEX
  8
0
 10
2.14193837446
 20
-1.25
 30
0.0
  0
SEQEND
  8
0
  0
POLYLINE
  8
0
 62
0
 70
0
 66
1
 10
0.0
 20
0.0
 30
0.0
  0
VERTEX
  8
0
 10
2.48
 20
2.84e-15
 30
0.0
  0
VERTEX
  8
0
 10
2.37409897418
 20
-0.716975685471
 30
0.0
  0
SEQEND
  8
0
  0
POLYLINE
  8
0
 62
0
 70
0
 66
1
 10
0.0
 20
0.0
 30
0.0
  0
VERTEX
  8
0
 10
2.36615260333
 20
-0.742779818412
 30
0.0
  0
VERTEX
  8
0
 10
2.34195456734
 20
-0.815873024545
 30
0.0
  0
SEQEND
  8
0
  0
POLYLINE
  8
0
 62
0
 70
0
 66
1
 10
0.0
 20
0.0
 30
0.0
  0
VERTEX
  8
0
 10
2.34145327849
 20
-0.817310548612
 30
0.0
  0
VERTEX
  8
0
 10
2.3414530314
 20
-0.817311256463
 30
0.0
  0
SEQEND
  8
0
  0
POLYLINE
  8
0
 62
0
 70
0
 66
1
 10
0.0
 20
0.0
 30
0.0
  0
VERTEX
  8
0
 10
2.30111330023
 20
-0.924812186238
 30
0.0
  0
VERTEX
  8
0
 10
2.26620589848
 20
-1.00732855737
 30
0.0
  0
SEQEND
  8
0
  0
POLYLINE
  8
0
 62
0
 70
0
 66
1
 10
0.0
 20
0.0
 30
0.0
  0
VERTEX
  8
0
 10
2.25789319205
 20
-1.02582568369
 30
0.0
  0
VERTEX
  8
0
 10
2.14193837446
 20
-1.25
 30
0.0
  0
SEQEND
  8
0
  0
POLYLINE
  8
0
 62
0
 70
0
 66
1
 10
0.0
 20
0.0
 30
0.0
  0
VERTEX
  8
0
 10
2.47864711273
 20
-0.0819051029526
 30
0.0
  0
VERTEX
  8
0
 10
2.48
 20
2.23e-15
 30
0.0
  0
SEQEND
  8
0
  0
POLYLINE
  8
0
 62
0
 70
0
 66
1
 10
0.0
 20
0.0
 30
0.0
  0
VERTEX
  8
0
 10
2.48
 20
2.44e-15
 30
0.0
  0
VERTEX
  8
0
 10
2.47864711236
 20
0.0819051029407
 30
0.0
  0
SEQEND
  8
0
  0
POLYLINE
  8
0
 62
0
 70
0
 66
1
 10
0.0
 20
0.0
 30
0.0
  0
VERTEX
  8
0
 10
23.1622776602
 20
4.5
 30
0.0
  0
VERTEX
  8
0
 10
19.0493807689
 20
4.5
 30
0.0
  0
SEQEND
  8
0
  0
LINE
  8
0
 62
0
 10
23.1622776602
 20
4.5
 30
0.0
 11
23.1622776602
 21
1.5
 31
0.0
  0
POLYLINE
  8
0
 62
0
 70
0
 66
1
 10
0.0
 20
0.0
 30
0.0
  0
VERTEX
  8
0
 10
23.1622776602
 20
-4.5
 30
0.0
  0
VERTEX
  8
0
 10
19.0493807689
 20
-4.5
 30
0.0
  0
SEQEND
  8
0
  0
LINE
  8
0
 62
0
 10
23.1622776602
 20
-1.5
 30
0.0
 11
23.1622776602
 21
-4.5
 31
0.0
  0
POLYLINE
  8
0
 62
0
 70
0
 66
1
 10
0.0
 20
0.0
 30
0.0
  0
VERTEX
  8
0
 10
-2.14193837446
 20
-1.25
 30
0.0
  0
VERTEX
  8
0
 10
-2.41675343866
 20
-0.556509493594
 30
0.0
  0
SEQEND
  8
0
  0
POLYLINE
  8
0
 62
0
 70
0
 66
1
 10
0.0
 20
0.0
 30
0.0
  0
VERTEX
  8
0
 10
-2.42188829082
 20
0.53372004108
 30
0.0
  0
VERTEX
  8
0
 10
-2.41861182208
 20
0.548376528722
 30
0.0
  0
SEQEND
  8
0
  0
POLYLINE
  8
0
 62
0
 70
0
 66
1
 10
0.0
 20
0.0
 30
0.0
  0
VERTEX
  8
0
 10
-2.41582307453
 20
0.560534414488
 30
0.0
  0
VERTEX
  8
0
 10
-2.36858696349
 20
0.734980136776
 30
0.0
  0
SEQEND
  8
0
  0
POLYLINE
  8
0
 62
0
 70
0
 66
1
 10
0.0
 20
0.0
 30
0.0
  0
VERTEX
  8
0
 10
-2.36128689961
 20
0.758105644797
 30
0.0
  0
VERTEX
  8
0
 10
-2.14193837446
 20
1.25
 30
0.0
  0
SEQEND
  8
0
  0
POLYLINE
  8
0
 62
0
 70
0
 66
1
 10
0.0
 20
0.0
 30
0.0
  0
VERTEX
  8
0
 10
-2.14193837446
 20
-1.25
 30
0.0
  0
VERTEX
  8
0
 10
-2.14193837446
 20
1.25
 30
0.0
  0
SEQEND
  8
0
  0
ENDBLK
  0
ENDSEC
  0
SECTION
  2
ENTITIES
  0
INSERT
  2
BODY
  8
0
 62
0
 10
0.0
 20
0.0
 30
0.0
  0
ENDSEC
  0
EOF
